<svg viewBox="0 0 800 800" xmlns="http://www.w3.org/2000/svg">
    <g fill="none" stroke="currentColor" stroke-width="1" opacity="0.15">
        <circle cx="400" cy="400" r="50"/>
        <circle cx="400" cy="400" r="100"/>
        <circle cx="400" cy="400" r="150"/>
        <circle cx="400" cy="400" r="200"/>
        <circle cx="400" cy="400" r="250"/>
        <circle cx="400" cy="400" r="300"/>
        <circle cx="400" cy="400" r="350"/>
        <circle cx="400" cy="400" r="400"/>
        <!-- Dashed segments -->
        <path d="M 400 150 A 250 250 0 0 1 550 250" stroke-dasharray="10 20"/>
        <path d="M 250 250 A 250 250 0 0 1 150 400" stroke-dasharray="10 20"/>
        <path d="M 250 550 A 250 250 0 0 1 400 650" stroke-dasharray="10 20"/>
        <path d="M 550 550 A 250 250 0 0 1 650 400" stroke-dasharray="10 20"/>
    </g>
</svg>
